<?xml version="1.0" encoding="UTF-8" standalone="yes"?>
<svg xmlns="http://www.w3.org/2000/svg" xmlns:xlink="http://www.w3.org/1999/xlink" width="162.448pt" height="239.621pt" version="1.1" viewBox="-46.738 537.766 162.448 239.621">
  <!--
	Exported with Concepts: Smarter Sketching
	Version: 2021.03.5 on Android 10
	https://concepts.app/
	-->
  <title>69wm 2 2</title>
  <desc>Drawing exported from Concepts: Smarter Sketching</desc>
  <defs></defs>
  <g id="Fill" opacity="1.000">
    <path id="STROKE_334c2228-dd8b-46e9-8cef-763fcb81aab1" opacity="1.000" fill="#000000" stroke="#000000" stroke-width="0.000" stroke-opacity="1.000" stroke-linecap="round" stroke-linejoin="round" d="M 58.043 540.115 Q 57.532 540.406 53.943 542.549 Q 50.354 544.692 45.360 547.780 Q 40.365 550.869 36.871 553.153 Q 33.377 555.437 28.659 558.824 Q 23.940 562.212 20.370 564.979 Q 16.800 567.747 14.657 569.533 Q 12.515 571.319 7.767 575.658 Q 3.018 579.997 -0.398 583.454 Q -3.815 586.910 -6.308 589.660 Q -8.802 592.411 -10.504 594.384 Q -12.206 596.357 -15.500 600.570 Q -18.795 604.783 -23.290 611.640 Q -27.786 618.497 -29.917 622.358 Q -32.049 626.219 -33.743 629.811 Q -35.437 633.403 -37.074 637.487 Q -38.711 641.571 -40.318 646.957 Q -41.925 652.343 -42.640 655.874 Q -43.354 659.406 -43.680 661.885 Q -44.006 664.364 -44.179 666.831 Q -44.352 669.298 -44.384 671.556 Q -44.417 673.815 -44.338 675.364 Q -44.259 676.914 -43.757 680.401 Q -43.255 683.887 -41.482 689.001 Q -39.710 694.115 -38.227 696.548 Q -36.744 698.982 -34.896 701.092 Q -33.048 703.202 -31.713 704.352 Q -30.378 705.502 -28.767 706.561 Q -27.155 707.621 -23.712 709.088 Q -20.268 710.554 -16.859 711.252 Q -13.450 711.949 -9.418 712.008 Q -5.385 712.067 -3.235 711.806 Q -1.086 711.545 2.457 710.600 Q 5.999 709.655 8.341 708.706 Q 10.682 707.757 12.383 706.881 Q 14.084 706.004 17.090 703.945 Q 20.096 701.886 22.621 699.492 Q 25.146 697.097 26.483 695.396 Q 27.820 693.693 28.407 692.725 Q 28.995 691.756 30.333 686.849 Q 31.671 681.943 31.639 681.147 Q 31.607 680.352 31.463 679.459 Q 31.319 678.566 31.070 677.710 Q 30.822 676.855 30.344 675.785 Q 29.865 674.715 29.088 673.593 Q 28.311 672.471 27.224 671.305 Q 26.138 670.140 25.546 669.634 Q 24.953 669.129 24.319 668.583 Q 23.684 668.037 22.674 667.303 Q 21.663 666.568 20.665 665.936 Q 19.667 665.303 18.036 664.383 Q 16.405 663.462 16.153 663.343 Q 15.901 663.223 13.596 662.138 Q 11.290 661.053 8.622 659.883 Q 5.953 658.713 0.908 656.670 "></path>
    <path id="STROKE_ee7d8c49-b337-4b45-bc49-f7b99393a55a" opacity="1.000" fill="#000000" stroke="#000000" stroke-width="0.000" stroke-opacity="1.000" stroke-linecap="round" stroke-linejoin="round" d="M 10.928 775.038 Q 11.439 774.747 15.028 772.604 Q 18.617 770.461 23.612 767.373 Q 28.606 764.284 32.100 762.000 Q 35.594 759.716 40.313 756.328 Q 45.031 752.941 48.602 750.174 Q 52.172 747.406 54.314 745.620 Q 56.456 743.834 61.205 739.495 Q 65.953 735.156 69.370 731.699 Q 72.786 728.243 75.280 725.493 Q 77.773 722.742 79.475 720.769 Q 81.177 718.796 84.472 714.582 Q 87.766 710.369 92.262 703.513 Q 96.757 696.656 98.889 692.795 Q 101.021 688.934 102.714 685.342 Q 104.408 681.750 106.045 677.666 Q 107.682 673.581 109.290 668.196 Q 110.897 662.810 111.611 659.279 Q 112.325 655.747 112.651 653.268 Q 112.977 650.789 113.150 648.322 Q 113.323 645.855 113.356 643.597 Q 113.389 641.338 113.310 639.788 Q 113.231 638.239 112.729 634.752 Q 112.226 631.266 110.454 626.152 Q 108.682 621.038 107.199 618.604 Q 105.716 616.171 103.868 614.061 Q 102.020 611.951 100.685 610.801 Q 99.350 609.651 97.738 608.592 Q 96.127 607.532 92.683 606.065 Q 89.239 604.599 85.831 603.901 Q 82.422 603.204 78.389 603.145 Q 74.357 603.086 72.207 603.347 Q 70.057 603.608 66.515 604.553 Q 62.972 605.498 60.631 606.447 Q 58.289 607.396 56.589 608.272 Q 54.888 609.149 51.881 611.208 Q 48.875 613.267 46.350 615.661 Q 43.825 618.055 42.488 619.757 Q 41.152 621.459 40.564 622.428 Q 39.977 623.397 38.639 628.303 Q 37.301 633.210 37.333 634.005 Q 37.365 634.801 37.509 635.694 Q 37.652 636.587 37.901 637.443 Q 38.150 638.298 38.628 639.368 Q 39.106 640.438 39.884 641.560 Q 40.661 642.682 41.747 643.848 Q 42.834 645.013 43.426 645.518 Q 44.018 646.024 44.653 646.570 Q 45.287 647.116 46.298 647.850 Q 47.308 648.585 48.306 649.217 Q 49.304 649.850 50.936 650.770 Q 52.567 651.691 52.818 651.810 Q 53.070 651.930 55.376 653.015 Q 57.681 654.100 60.350 655.270 Q 63.018 656.439 68.063 658.483 "></path>
  </g>
</svg>