<?xml version="1.0" encoding="UTF-8" standalone="yes"?>
<svg xmlns="http://www.w3.org/2000/svg" xmlns:xlink="http://www.w3.org/1999/xlink" width="111.612pt" height="89.551pt" version="1.1" viewBox="15.633 720.168 111.612 89.551">
  <!--
	Exported with Concepts: Smarter Sketching
	Version: 2021.03.5 on Android 10
	https://concepts.app/
	-->
  <title>Untitled</title>
  <desc>Drawing exported from Concepts: Smarter Sketching</desc>
  <defs></defs>
  <g id="Fill" opacity="1.000">
    <path id="STROKE_49fde98a-5044-4061-91f7-3a0b0e318382" opacity="1.000" fill="#000000" stroke="#000000" stroke-width="0.000" stroke-opacity="1.000" stroke-linecap="round" stroke-linejoin="round" d="M 81.193 734.436 Q 80.957 734.436 75.802 734.326 Q 70.647 734.217 67.552 734.194 Q 64.457 734.171 60.825 734.232 Q 57.194 734.293 55.036 734.392 Q 52.878 734.492 51.523 734.588 Q 50.168 734.684 47.297 734.956 Q 44.426 735.229 42.489 735.506 Q 40.552 735.783 37.414 736.441 Q 34.277 737.100 32.139 737.799 Q 30.002 738.499 28.731 739.047 Q 27.459 739.595 26.152 740.349 Q 24.844 741.102 23.774 741.907 Q 22.704 742.711 22.285 743.092 Q 21.865 743.473 20.277 745.536 Q 18.690 747.598 17.913 749.492 Q 17.137 751.385 17.064 751.728 Q 16.990 752.072 16.949 752.262 Q 16.908 752.453 16.787 753.748 Q 16.665 755.043 16.790 756.725 Q 16.914 758.407 17.224 759.808 Q 17.534 761.209 18.090 762.810 Q 18.646 764.412 19.090 765.368 Q 19.534 766.325 20.187 767.486 Q 20.840 768.648 22.121 770.479 Q 23.403 772.310 24.733 773.880 Q 26.063 775.452 27.691 777.152 Q 29.319 778.853 30.356 779.865 Q 31.393 780.878 32.363 781.773 Q 33.332 782.668 34.559 783.732 Q 35.785 784.796 38.943 787.396 Q 42.101 789.996 45.823 792.831 Q 49.545 795.667 52.854 797.943 Q 56.163 800.219 57.822 801.233 Q 59.480 802.246 60.764 802.971 Q 62.048 803.697 62.780 804.086 Q 63.511 804.476 64.594 804.999 Q 65.677 805.521 67.003 806.088 Q 68.330 806.654 69.014 806.912 Q 69.699 807.170 70.773 807.480 Q 71.847 807.789 72.421 807.922 Q 72.996 808.056 73.984 808.228 Q 74.971 808.401 75.805 808.500 Q 76.639 808.600 79.378 808.625 Q 82.117 808.649 84.053 808.396 Q 85.989 808.143 87.458 807.806 Q 88.927 807.470 90.880 806.824 Q 92.832 806.179 94.283 805.561 Q 95.734 804.943 98.052 803.673 Q 100.371 802.403 101.404 801.738 Q 102.437 801.073 104.947 799.141 Q 107.458 797.208 109.248 795.555 Q 111.039 793.903 112.071 792.813 Q 113.104 791.723 115.030 789.384 Q 116.956 787.045 117.831 785.810 Q 118.707 784.576 119.771 782.850 Q 120.835 781.125 122.305 777.972 Q 123.776 774.820 124.558 772.236 Q 125.340 769.651 125.468 769.096 Q 125.596 768.542 125.856 766.673 Q 126.115 764.805 126.150 763.519 Q 126.185 762.234 126.074 760.801 Q 125.964 759.369 125.813 758.488 Q 125.662 757.608 125.438 756.745 Q 125.213 755.882 124.889 754.976 Q 124.565 754.070 123.933 752.825 Q 123.301 751.580 122.342 750.210 Q 121.382 748.841 118.488 746.264 Q 115.595 743.687 113.529 742.468 Q 111.463 741.250 109.790 740.479 Q 108.117 739.708 106.169 738.981 Q 104.222 738.253 101.284 737.378 Q 98.346 736.503 96.402 736.036 Q 94.459 735.568 93.144 735.286 Q 91.829 735.003 87.095 734.006 "></path>
    <path id="STROKE_d225e8a2-bfd4-4b4f-8fc5-49f6029ec8f2" opacity="1.000" fill="#000000" stroke="#000000" stroke-width="0.000" stroke-opacity="1.000" stroke-linecap="round" stroke-linejoin="round" d="M 33.583 739.997 Q 33.789 739.267 34.642 736.765 Q 35.496 734.263 36.319 732.347 Q 37.142 730.432 38.112 728.838 Q 39.082 727.245 42.435 724.796 Q 42.747 724.740 43.738 725.058 Q 44.728 725.376 45.681 726.048 Q 46.634 726.720 47.721 727.875 Q 48.809 729.030 50.881 732.071 Q 52.953 735.113 54.114 737.188 Q 55.276 739.263 56.281 741.314 Q 57.285 743.366 58.064 745.062 Q 58.842 746.757 59.405 747.968 Q 59.968 749.178 60.706 750.863 L 61.927 753.460 "></path>
    <path id="STROKE_d83d3ef0-9157-4472-812c-a96a4eecc9c0" opacity="1.000" fill="#009ef1" stroke="#009ef1" stroke-width="0.000" stroke-opacity="1.000" stroke-linecap="round" stroke-linejoin="round" d="M 82.403 747.380 Q 82.453 747.620 82.178 747.355 "></path>
    <path id="STROKE_6589fbf6-7d74-421e-b916-326892de1e16" opacity="1.000" fill="#000000" stroke="#000000" stroke-width="0.000" stroke-opacity="1.000" stroke-linecap="round" stroke-linejoin="round" d="M 75.169 753.070 Q 75.409 752.571 77.454 748.409 Q 79.500 744.246 81.427 740.524 Q 83.355 736.801 85.238 733.574 Q 87.122 730.346 88.420 728.467 Q 89.719 726.588 91.188 724.940 Q 92.657 723.292 93.359 722.732 Q 94.060 722.173 94.720 721.841 Q 95.380 721.509 95.681 721.418 Q 95.983 721.327 96.204 721.288 Q 96.425 721.249 96.798 721.263 Q 97.170 721.278 97.800 721.439 Q 97.877 721.481 98.983 722.461 Q 100.090 723.441 100.935 724.794 Q 101.780 726.148 102.347 727.352 Q 102.914 728.556 103.153 729.137 Q 103.393 729.717 104.205 731.851 Q 105.018 733.986 105.767 736.227 Q 106.517 738.468 106.855 739.539 Q 107.193 740.609 107.681 742.162 Q 108.169 743.714 108.520 744.753 Q 108.870 745.793 109.295 746.980 Q 109.719 748.168 110.109 749.286 Q 110.499 750.404 111.339 752.799 "></path>
    <path id="STROKE_08257697-eb91-4b14-b75f-3c2742794038" opacity="1.000" fill="#009ef1" stroke="#009ef1" stroke-width="0.000" stroke-opacity="1.000" stroke-linecap="round" stroke-linejoin="round" d="M 38.447 753.409 L 40.544 753.076 "></path>
  </g>
  <g id="Pen" opacity="1.000">
    <path id="STROKE_01ebe84d-240c-44b1-af78-a88b174603d2" opacity="1.000" fill="none" stroke="#ffffff" stroke-width="18.397" stroke-opacity="1.000" stroke-linecap="round" stroke-linejoin="round" d="M 44.915 759.668 Q 45.038 760.155 45.730 762.444 "></path>
    <path id="STROKE_247c9456-ed5e-47ac-9b51-3812b492392a" opacity="1.000" fill="none" stroke="#ffffff" stroke-width="18.397" stroke-opacity="1.000" stroke-linecap="round" stroke-linejoin="round" d="M 94.303 757.999 L 94.789 762.013 "></path>
    <path id="STROKE_feeb49de-16fe-4750-b365-c64c52169cb5" opacity="1.000" fill="none" stroke="#ffffff" stroke-width="1.930" stroke-opacity="1.000" stroke-linecap="round" stroke-linejoin="round" d="M 59.736 779.211 Q 59.747 779.238 60.108 780.057 Q 60.469 780.876 60.861 781.698 Q 61.252 782.519 61.540 783.050 Q 61.828 783.580 62.208 784.173 Q 62.587 784.766 63.023 785.325 Q 63.459 785.884 63.970 786.378 Q 64.481 786.871 64.786 787.107 Q 65.090 787.343 65.281 787.465 Q 65.473 787.587 65.944 787.812 Q 66.415 788.038 66.757 788.144 Q 67.098 788.251 67.417 788.312 Q 67.735 788.372 68.258 788.389 Q 68.781 788.405 69.257 788.338 Q 69.733 788.270 70.069 788.181 Q 70.405 788.092 70.883 787.906 Q 71.361 787.721 71.622 787.587 Q 71.884 787.454 72.159 787.285 Q 72.434 787.116 72.638 786.969 Q 72.843 786.821 72.968 786.723 Q 73.093 786.625 73.288 786.457 Q 73.483 786.288 73.739 786.073 Q 73.996 785.858 74.262 785.659 Q 74.529 785.459 75.119 784.907 Q 75.710 784.355 75.986 784.086 "></path>
    <path id="STROKE_50107fd9-582b-492c-ba47-782d21c566fc" opacity="1.000" fill="none" stroke="#ffffff" stroke-width="1.930" stroke-opacity="1.000" stroke-linecap="round" stroke-linejoin="round" d="M 76.202 784.475 Q 76.226 784.493 76.561 784.793 Q 76.895 785.093 77.315 785.464 Q 77.735 785.835 78.067 786.101 Q 78.398 786.367 78.617 786.528 Q 78.836 786.688 78.938 786.762 Q 79.041 786.836 79.267 786.984 Q 79.494 787.132 79.691 787.247 Q 79.887 787.362 80.184 787.506 Q 80.480 787.650 80.615 787.706 Q 80.750 787.762 80.936 787.833 Q 81.123 787.904 81.172 787.922 Q 81.222 787.940 81.583 788.044 Q 81.945 788.148 82.198 788.204 Q 82.451 788.259 82.863 788.316 Q 83.275 788.372 83.357 788.381 Q 83.439 788.391 83.487 788.392 Q 83.534 788.394 83.675 788.401 Q 83.815 788.409 84.106 788.403 Q 84.396 788.397 84.722 788.368 Q 85.049 788.340 85.210 788.316 Q 85.372 788.292 85.591 788.248 Q 85.811 788.204 85.995 788.157 Q 86.180 788.111 86.437 788.026 Q 86.694 787.942 86.797 787.903 Q 86.900 787.864 87.181 787.737 Q 87.462 787.610 87.642 787.519 Q 87.822 787.428 87.889 787.391 Q 87.956 787.355 88.109 787.270 Q 88.263 787.185 88.435 787.080 Q 88.606 786.976 88.846 786.806 Q 89.087 786.636 89.231 786.522 Q 89.376 786.408 89.584 786.225 Q 89.793 786.043 90.063 785.777 Q 90.333 785.511 90.681 785.119 Q 91.029 784.727 91.216 784.491 Q 91.404 784.256 91.515 784.106 Q 91.626 783.955 91.734 783.799 Q 91.842 783.643 91.901 783.557 Q 91.960 783.471 92.027 783.367 Q 92.093 783.262 92.195 783.100 Q 92.298 782.938 92.446 782.695 Q 92.594 782.452 92.697 782.282 Q 92.800 782.112 92.956 781.832 Q 93.112 781.552 93.149 781.481 Q 93.186 781.410 93.262 781.270 Q 93.338 781.130 93.387 781.038 Q 93.435 780.946 93.455 780.906 Q 93.474 780.866 93.524 780.774 Q 93.574 780.683 93.590 780.650 Q 93.605 780.618 93.733 780.364 Q 93.860 780.109 93.952 779.928 Q 94.044 779.747 94.089 779.661 Q 94.134 779.575 94.388 779.096 "></path>
  </g>
</svg>